<svg id="Capa_1" enable-background="new 0 0 512 512" height="512" viewBox="0 0 512 512" width="512" xmlns="http://www.w3.org/2000/svg"><g><path d="m202.5 261.2v-25.386h-15v25.386c0 41.355-33.645 75-75 75s-75-33.645-75-75v-25.386h-15v25.386c0 49.626 40.374 90 90 90s90-40.374 90-90z"/><path d="m37.5 167.329 47.344 31.563h55.312l47.344-31.563v53.485h15v-81.513l-66.885 44.59h-10.247c12.488-34.062 44.834-57.115 81.748-57.115h82.635v-15h-82.635c-22.9 0-45.42 7.889-63.412 22.214-16.135 12.846-28.095 30.403-34.147 49.901h-20.171l-66.886-44.589v81.513h15z"/><path d="m364.614 291.082c0 31.646 21.265 60.081 51.713 69.147l4.281-14.376c-24.137-7.188-40.994-29.71-40.994-54.771z"/><path d="m180 363.196c12.512 0 24.147 5.042 32.761 14.198l10.925-10.278c-11.313-12.023-27.236-18.919-43.686-18.919z"/><path d="m157.5 202.427h15v15h-15z"/><path d="m444.5 213.891h15c0-19.161-7.529-37.243-21.2-50.915-13.671-13.671-31.753-21.2-50.915-21.2v15c15.155 0 29.47 5.969 40.308 16.807 10.839 10.838 16.807 25.153 16.807 40.308z"/><path d="m357.386 141.776h15v15h-15z"/><path d="m364.614 261.082h15v15h-15z"/><path d="m474.5 325.227-21.615 171.773h-30.885v-30h-15v45h59.116l23.384-185.833v-45.47h-15z"/><path d="m195 452h15v-43.804c0-16.542-13.458-30-30-30s-30 13.458-30 30v88.804h-30v-130.801h-15v145.801h60v-103.804c0-8.271 6.729-15 15-15s15 6.729 15 15z"/><path d="m334.909 298.876c3.226 42.535 32.628 77.875 72.091 89.907v63.217h15v-59.864c4.81.698 9.729 1.06 14.729 1.06v-15c-48.035 0-87.115-39.08-87.115-87.115v-41.428h-15v34.201c-52.817 3.853-94.614 48.059-94.614 101.842v111.304h-30v-30h-15v45h60v-126.304c0-45.611 35.23-83.146 79.909-86.82z"/><path d="m366.397 497h-30.891v-104.862c4.837.702 9.756 1.058 14.729 1.058v-15c-23.41 0-45.436-9.284-62.021-26.141l-10.692 10.52c12.199 12.399 26.92 21.3 42.985 26.208v123.217h59.109l14.058-110.944-14.881-1.886z"/><path d="m459.5 0c-16.542 0-30 13.458-30 30v73.425h15v-73.425c0-8.271 6.729-15 15-15s15 6.729 15 15v130.727c-4.183-6.798-9.194-13.163-14.992-18.961-19.34-19.339-44.954-29.99-72.123-29.99h-82.635v15h82.636c23.163 0 45.01 9.09 61.517 25.597 16.508 16.506 25.599 38.354 25.598 61.518v51.807h15v-51.807-183.891c-.001-16.542-13.459-30-30.001-30z"/><path d="m71.25 233.306h15v30.923h-15z" transform="matrix(.243 -.97 .97 .243 -181.69 264.832)"/><path d="m130.788 241.268h30.923v15h-30.923z" transform="matrix(.97 -.243 .243 .97 -55.969 42.898)"/></g></svg>