<svg xmlns="http://www.w3.org/2000/svg" viewBox="0 0 549 248.33"><defs><style>.cls-1,.cls-2{fill:none;stroke:#000;stroke-miterlimit:10;}.cls-1{stroke-width:6px;}.cls-2{stroke-width:4px;}.cls-3{font-size:72px;font-family:PoetsenOne-Regular, Poetsen One;}</style></defs><title>Main</title><g id="Layer_2" data-name="Layer 2"><g id="Logos"><ellipse class="cls-1" cx="354.91" cy="64.09" rx="19.59" ry="30.68"/><path d="M339,47.53c-1.25,4.27-5.06,21.57-.92,31.29,6.8,16,18.77,16,18.71,16C332.25,81.27,340.67,41.84,339,47.53Z"/><ellipse class="cls-1" cx="305.08" cy="33.68" rx="19.59" ry="30.68"/><path d="M289.17,17.11c-1.26,4.28-5.06,21.57-.92,31.29,6.8,15.95,18.77,16,18.71,15.95C282.42,50.85,290.84,11.42,289.17,17.11Z"/><ellipse class="cls-1" cx="252.31" cy="35.61" rx="19.59" ry="30.68"/><path d="M236.4,19c-1.26,4.28-5.06,21.57-.92,31.29,6.8,16,18.77,16,18.71,16C229.65,52.78,238.06,13.35,236.4,19Z"/><ellipse class="cls-1" cx="205.59" cy="66.1" rx="19.59" ry="30.68"/><path d="M189.68,49.53c-1.25,4.28-5.06,21.58-.91,31.29,6.79,16,18.76,16,18.7,16C182.93,83.28,191.35,43.85,189.68,49.53Z"/><path class="cls-1" d="M261.08,154.84c37.83,13.08,89.38,9.32,99-8.28,12.34-22.47-16-63.39-49.7-77.3-29.44-12.15-57-1.21-61.35.61-24.55,10.2-36,29.28-42.33,39.88-8.08,13.49-16,26.71-11,37.43,7.12,15.4,37.33,18,58.28,10.43,28.35-10.32,30.68-23.93,30.68-23.93"/><circle class="cls-2" cx="279.79" cy="106.07" r="27.3"/><path d="M269.67,131.53c4.49,1.61,14.11,1.84,14.11,1.84,0,10.43-22.08,20.86-22.08,20.86C260.71,152.83,274.58,146.87,269.67,131.53Z"/><path d="M283.26,86.22c4.06.4,11.37,2.9,15.17,11.79,6.22,14.61-5.06,22.48-5.06,22.48C278.76,111.76,274,85.29,283.26,86.22Z"/><path d="M259.67,94.68C257,101,255,110.61,261.08,119.26c4.3,6.14,9.82,7.36,9.82,7.36C256.52,119.86,262.89,86.93,259.67,94.68Z"/><text class="cls-3" transform="translate(97.81 221.65) rotate(7.74) scale(0.9 1)">A</text><text class="cls-3" transform="translate(138.45 227.04) rotate(5.4) scale(0.9 1)">c</text><text class="cls-3" transform="translate(172.26 230.26) rotate(3.51) scale(0.9 1)">h</text><text class="cls-3" transform="translate(211.54 232.64) rotate(1.83) scale(0.9 1)">a</text><text class="cls-3" transform="matrix(0.9, 0.01, -0.01, 1, 247.08, 233.74)">-</text><text class="cls-3" transform="matrix(0.9, -0.01, 0.02, 1, 277.01, 234.05)">P</text><text class="cls-3" transform="translate(314.39 233.49) rotate(-2.41) scale(0.9 1)">a</text><text class="cls-3" transform="matrix(0.9, -0.06, 0.07, 1, 350.99, 231.89)">t</text><text class="cls-3" transform="translate(377.69 230.18) rotate(-5.5) scale(0.9 1)">a</text><text class="cls-3" transform="matrix(0.89, -0.12, 0.13, 0.99, 415.19, 226.52)">s</text></g></g></svg>